<svg width="99" height="29" viewBox="0 0 99 29" fill="none" xmlns="http://www.w3.org/2000/svg">
<path d="M23.6836 0.5625V29H17.8242L6.39844 9.9375V29H0.539062V0.5625H6.39844L17.8438 19.6445V0.5625H23.6836ZM47.8633 24.4297V29H32.7266V24.4297H47.8633ZM34.6406 0.5625V29H28.7812V0.5625H34.6406ZM45.8906 12.1445V16.5977H32.7266V12.1445H45.8906ZM47.8438 0.5625V5.15234H32.7266V0.5625H47.8438ZM51.2812 0.5625H61.8867C64.0612 0.5625 65.9297 0.888021 67.4922 1.53906C69.0677 2.1901 70.2786 3.15365 71.125 4.42969C71.9714 5.70573 72.3945 7.27474 72.3945 9.13672C72.3945 10.6602 72.1341 11.9688 71.6133 13.0625C71.1055 14.1432 70.3828 15.0482 69.4453 15.7773C68.5208 16.4935 67.4336 17.0664 66.1836 17.4961L64.3281 18.4727H55.1094L55.0703 13.9023H61.9258C62.9544 13.9023 63.8073 13.7201 64.4844 13.3555C65.1615 12.9909 65.6693 12.4831 66.0078 11.832C66.3594 11.181 66.5352 10.4258 66.5352 9.56641C66.5352 8.65495 66.3659 7.86719 66.0273 7.20312C65.6888 6.53906 65.1745 6.03125 64.4844 5.67969C63.7943 5.32812 62.9284 5.15234 61.8867 5.15234H57.1406V29H51.2812V0.5625ZM67.1797 29L60.6953 16.3242L66.8867 16.2852L73.4492 28.7266V29H67.1797ZM85.6367 29H79.4453L79.4844 24.4297H85.6367C87.1732 24.4297 88.4688 24.0846 89.5234 23.3945C90.5781 22.6914 91.3724 21.6693 91.9062 20.3281C92.4531 18.987 92.7266 17.3659 92.7266 15.4648V14.0781C92.7266 12.6198 92.5703 11.3372 92.2578 10.2305C91.9583 9.1237 91.5091 8.19271 90.9102 7.4375C90.3112 6.68229 89.5755 6.11589 88.7031 5.73828C87.8307 5.34766 86.8281 5.15234 85.6953 5.15234H79.3281V0.5625H85.6953C87.5964 0.5625 89.3346 0.888021 90.9102 1.53906C92.4987 2.17708 93.8724 3.09505 95.0312 4.29297C96.1901 5.49089 97.082 6.92318 97.707 8.58984C98.3451 10.2435 98.6641 12.0859 98.6641 14.1172V15.4648C98.6641 17.4831 98.3451 19.3255 97.707 20.9922C97.082 22.6589 96.1901 24.0911 95.0312 25.2891C93.8854 26.474 92.5117 27.3919 90.9102 28.043C89.3216 28.681 87.5638 29 85.6367 29ZM82.7656 0.5625V29H76.9062V0.5625H82.7656Z" fill="#323334"/>
</svg>
